<svg id="Camada_1" data-name="Camada 1" xmlns="http://www.w3.org/2000/svg" viewBox="0 0 721.03 202.38"><defs><style>.cls-1{fill:#7b3fe4;}</style></defs><title>logo-mindly-gs-extenso</title><path class="cls-1" d="M328.55,333.28l27.86-46.87-14.73-16.12c.5-.94,1.16-2.38,2-3.71q7.65-12.36,15.37-24.68c1.43-2.27,2.55-4.23.89-7.14-1.54-2.71.61-7.32,3.54-9.19a8.45,8.45,0,0,1,9.28.73c2.69,2.42,3.91,6.33,2.62,9.3-1.46,3.37-3.91,5.62-7.88,5.41a3.32,3.32,0,0,0-3.32,1.84c-5.33,8.62-10.75,17.2-16.33,26.08l23.33,24c-4.36,6.64-8.53,13-12.85,19.55-2.49-.13-4.92.44-6.64,2.84a6.28,6.28,0,0,0-.22,7.34,7.49,7.49,0,0,0,8.07,3.14c2.73-.87,4.88-3.38,4.41-6.17-.56-3.31.74-5.62,2.52-8.11,4-5.67,7.85-11.49,11.75-17.25a12.2,12.2,0,0,0,.69-1.4l-15.28-17.45a15.72,15.72,0,0,1,.79-1.7c8.16-13.19,16.39-26.34,24.47-39.58a4.64,4.64,0,0,1,4.62-2.58c16.66.09,33.32,0,50,.1,2.51,0,4-.53,5.38-3a10.9,10.9,0,0,1,14.89-3.92,11.15,11.15,0,0,1,3.9,15.26c-3.58,6.22-13.69,7-17.74,1.1-1.66-2.42-3.28-3.48-6-3.21a17.14,17.14,0,0,1-2.6-.1c-1,3-1.24,99.81-.23,103.86.84-.21,1.69-.37,2.51-.64a11.54,11.54,0,0,1,13.36,4.19,12.3,12.3,0,0,1,.3,13.82,12,12,0,0,1-13,4.46c-.95-.27-1.91-.51-3.33-.89-.56,19.05-.31,37.8-.43,56.73H416V355.74c1.31-.08,2.42-.19,3.53-.2,5.7,0,11.41,0,17.11-.11a7.41,7.41,0,0,1,5.58,1.81c3.83,3.35,8.9,2.37,11.06-1.76a6.41,6.41,0,0,0-1.16-7.86c-2.36-2.36-5.64-3.28-8.06-1.41-3,2.34-6.28,2.2-9.69,2.18-7.41-.05-14.83-.05-22.25-.05-1,0-2,.1-3.37.18-.12,1.48-.32,2.8-.32,4.13-.06,9.93-.06,19.85-.1,29.78q-.06,16.77-.15,33.54c0,1-.1,2-.17,3.29H392.8c.35-37,.35-73.83.14-111.48a11.19,11.19,0,0,0-1.91,1.54c-5.63,9-11.28,17.95-16.85,27-9,14.66-18.07,29.31-26.94,44.07a5.69,5.69,0,0,1-5.7,3.14c-8.9-.12-17.8,0-26.7.16-2.47.05-3.83-.8-5.12-2.95-6.69-11.15-13.59-22.17-20.4-33.25Q260,299.8,228.79,253.37c-3-4.55-6.27-9-9.22-13.6a4.59,4.59,0,0,0-4.82-2.29,108.86,108.86,0,0,1-11.28.29,3.36,3.36,0,0,0-3.52,2,10,10,0,0,1-8.25,5.35c-5.31.53-9.35-1.89-11.42-6.83a11,11,0,0,1,3.09-12.43,11.13,11.13,0,0,1,13.1-.71,12.72,12.72,0,0,1,3.53,4,3.85,3.85,0,0,0,3.81,2.23c5.82-.09,11.64,0,17.45,0,14.15,0,28.3,0,42.45-.1a4.41,4.41,0,0,1,4.36,2.46q22.92,38.11,46,76.15,6.63,11,13.29,22A15.53,15.53,0,0,0,328.55,333.28ZM458.37,228.37c-3.46,0-6.55,2.92-6.46,6.1.08,3,2.9,5.5,6.23,5.54,3.63.05,6.26-2.33,6.32-5.72A5.81,5.81,0,0,0,458.37,228.37ZM190.31,239.72a5.4,5.4,0,0,0,5.9-5.57,5.51,5.51,0,0,0-5.75-5.39c-2.58,0-5.33,2.79-5.47,5.54A5.37,5.37,0,0,0,190.31,239.72Zm182.52-6.67c0-2.7-1.89-4.56-4.82-4.63a4.6,4.6,0,0,0-4.85,4.94,4.44,4.44,0,0,0,4.4,4.32A4.86,4.86,0,0,0,372.83,233.05Z" transform="translate(-179.49 -223.24)"/><path class="cls-1" d="M248.31,348.52h-4.72c-7.64.09-15.29.15-22.93.3a10.29,10.29,0,0,1-7-2c-3.24-2.48-6.55-1.74-9,1.43a6.59,6.59,0,0,0,.93,9,5.94,5.94,0,0,0,8.11.41,11.17,11.17,0,0,1,7.63-2.19c5.24.1,10.49,0,15.74,0h3.67v64.07H216.32V362.29c-1,.24-1.5.3-2,.48a11.77,11.77,0,0,1-12.95-2.52,12.51,12.51,0,0,1-2.26-13.69c2.16-4.57,8.51-7.28,13.37-5.69,1.06.35,2.1.79,3.63,1.36.12-1.79.32-3.31.33-4.83q0-30.28,0-60.58c0-8.44.06-16.89.1-25.33,0-.67.07-1.33.14-2.58a18.1,18.1,0,0,1,1.75,1.91c13.94,20.86,27.73,41.83,41.91,62.52a19,19,0,0,1,3.47,11.59c0,30.12.13,60.24.24,90.36,0,1.34,0,2.68,0,4.22H248.31Z" transform="translate(-179.49 -223.24)"/><path class="cls-1" d="M740.44,390.74H731.1V370.12a16.49,16.49,0,0,0-2,2.13c-10.69,18.67-35.56,25.22-55.61,16.95-13.63-5.63-22.06-16-26.19-29.76-5-16.64-3.07-32.57,6.9-47.06,8.47-12.32,20.53-18.39,35.34-19.16a47.5,47.5,0,0,1,17.55,2.25,41.75,41.75,0,0,1,20.8,15.46,9,9,0,0,0,2.35,2.39c.74-4.85.46-9.58.56-14.29s.1-9.58.12-14.37,0-9.36,0-14,0-9.52.06-14.35h9.46Zm-47.52-89.15c-13.94,0-25.45,6.61-32.39,18.77a44.1,44.1,0,0,0-5.23,29.72c3.23,20,18.44,32.79,35.52,33.71,16.16.88,29.16-6.75,35.92-20.71a47.45,47.45,0,0,0,4.1-27.66C728.64,319.16,716.05,301.33,692.92,301.59Z" transform="translate(-179.49 -223.24)"/><path class="cls-1" d="M806.7,294.83H817c.76,1.62,1.65,3.44,2.46,5.3q15.07,34.46,30.14,68.92c1.1,2.51,2.19,5,3.35,7.5.45,1,1.06,1.89,1.95,3.43,12-28.85,23.73-57,35.49-85.29h10.1a17.25,17.25,0,0,1-.53,1.82q-19.35,44.7-38.76,89.4c-3.69,8.45-7.5,16.87-11.72,25.07-5.88,11.37-16.89,16.4-29.52,14.09a26.75,26.75,0,0,1-10.23-3.67c-1.29-.85-2.44-1.93-3.78-3l4.49-6.93c3.6,2.54,7.25,4.61,11.55,5.16,7.42,1,13.85-1.05,17.69-7.66,3.35-5.79,5.88-12.07,8.54-18.22a5.53,5.53,0,0,0-.47-3.88c-7.24-16.11-14.65-32.15-21.86-48.28C819.49,324.24,813.26,309.8,806.7,294.83Z" transform="translate(-179.49 -223.24)"/><path class="cls-1" d="M543.5,390.6h-9.68V294.86h8.86c.77,5.58-.06,11.28,1.29,17.3a19.35,19.35,0,0,0,1.6-1.82,34.67,34.67,0,0,1,23.94-16.12,53.7,53.7,0,0,1,23.06.28c14.38,3.55,22.72,12.88,25.58,27.17a69.82,69.82,0,0,1,1.25,12.91c.14,17.1.06,34.21.06,51.32v4.61h-9.89c-.07-1.21-.21-2.51-.21-3.82,0-16.65.2-33.3,0-49.95a58.42,58.42,0,0,0-1.75-14.19c-3.06-11.65-10.92-18.29-22.82-20.2a41,41,0,0,0-19.58,1.39c-11.8,3.86-18.19,12.46-20.84,24.12a49.35,49.35,0,0,0-.9,10.53c-.08,16,0,31.93,0,47.9Z" transform="translate(-179.49 -223.24)"/><path class="cls-1" d="M786.35,390.65h-9.14c-.32-44.82.16-89.53-.29-134.48h9.22C786.82,258.5,787.06,386.87,786.35,390.65Z" transform="translate(-179.49 -223.24)"/><path class="cls-1" d="M497.44,390.54h-8.61c-.79-2.45-1.1-90.8-.32-95.79h8.93Z" transform="translate(-179.49 -223.24)"/><path class="cls-1" d="M492.66,270.6c-4.67,0-8.31-3.48-8.22-7.79a8.06,8.06,0,0,1,8.33-8.08c4.76,0,8.4,3.46,8.43,8S497.44,270.63,492.66,270.6Z" transform="translate(-179.49 -223.24)"/></svg>